<svg viewBox="0 0 37 37" fill="none" xmlns="http://www.w3.org/2000/svg">
<path d="M36.9539 18.2731C36.9539 8.33224 28.8951 0.273438 18.9542 0.273438C9.01339 0.273438 0.95459 8.33224 0.95459 18.2731C0.95459 26.7142 6.76631 33.7974 14.6062 35.7428V23.7738H10.8947V18.2731H14.6062V15.9029C14.6062 9.77653 17.3789 6.9369 23.3937 6.9369C24.5341 6.9369 26.5018 7.16082 27.3068 7.38402V12.3699C26.882 12.3253 26.144 12.303 25.2275 12.303C22.2762 12.303 21.1358 13.4211 21.1358 16.3277V18.2731H27.0152L26.005 23.7738H21.1358V36.141C30.0485 35.0646 36.9546 27.4759 36.9546 18.2731H36.9539Z" fill="#0866FF"/>
</svg>
