<svg viewBox="0 0 44 43" fill="none" xmlns="http://www.w3.org/2000/svg">
<path d="M41.4862 11.9545C41.024 10.2289 39.6604 8.86538 37.9348 8.40317C34.7995 7.56348 22.235 7.56348 22.235 7.56348C22.235 7.56348 9.66274 7.56348 6.53509 8.40317C4.80179 8.86538 3.43826 10.2289 2.97604 11.9545C2.13635 15.0899 2.13635 21.6302 2.13635 21.6302C2.13635 21.6302 2.13635 28.1705 2.97604 31.3059C3.43826 33.0315 4.80179 34.395 6.52739 34.8572C9.66274 35.6969 22.2273 35.6969 22.2273 35.6969C22.2273 35.6969 34.7995 35.6969 37.9271 34.8572C39.6527 34.395 41.0163 33.0315 41.4785 31.3059C42.3182 28.1705 42.3182 21.6302 42.3182 21.6302C42.3182 21.6302 42.3182 15.0899 41.4785 11.9545H41.4862Z" fill="#FF0000"/>
<path d="M18.2137 27.6619L28.6521 21.63L18.2137 15.5981V27.6619Z" fill="white"/>
</svg>
